<svg width="63" height="50" viewBox="0 0 63 50" fill="none" xmlns="http://www.w3.org/2000/svg">
<path d="M3.02835 34.0764C25 35.0318 31.25 50 31.25 50C31.25 50 37.5 35.0955 59.4717 34.0764L58.9562 45.2229C61.2113 40.9554 62.5 36.051 62.5 30.8917C62.5 13.8217 48.518 0 31.25 0C13.982 0 0 13.8217 0 30.8917C0 36.051 1.28866 40.9554 3.54381 45.2229L3.02835 34.0764Z" fill="#1D1F24"/>
<path d="M31.25 49.9999C31.25 49.9999 36.7913 36.6878 55.9279 34.3948L55.4124 28.0891C31.1211 36.6878 31.25 49.9999 31.25 49.9999Z" fill="#10BC56"/>
<path d="M7.08773 28.0254L6.57227 34.3948C25.0645 36.6241 30.8635 49.1082 31.2501 49.9362C31.2501 49.9362 31.379 36.6241 7.08773 28.0254Z" fill="#10BC56"/>
<path d="M31.6357 43.8853C31.6357 43.8853 34.2775 32.484 52.7053 27.5159C52.7053 27.5159 35.9528 26.7515 31.6357 43.8853Z" fill="white"/>
<path d="M30.7989 43.6942C30.7989 43.6942 30.1545 29.1719 12.1777 19.9363L12.5643 23.8853C12.6288 23.8853 24.2267 27.8344 30.7989 43.6942Z" fill="white"/>
</svg>
