<svg width="100" height="80" viewBox="0 0 100 80" fill="none" xmlns="http://www.w3.org/2000/svg">
<path d="M4.84536 54.5223C40 56.051 50 80 50 80C50 80 60 56.1529 95.1546 54.5223L94.3299 72.3567C97.9381 65.5287 100 57.6815 100 49.4268C100 22.1147 77.6289 0 50 0C22.3711 0 0 22.1147 0 49.4268C0 57.6815 2.06186 65.5287 5.6701 72.3567L4.84536 54.5223Z" fill="white"/>
<path d="M50 80C50 80 58.866 58.7006 89.4846 55.0318L88.6598 44.9426C49.7938 58.7006 50 80 50 80Z" fill="#10BC56"/>
<path d="M11.3404 44.8406L10.5156 55.0317C40.1033 58.5985 49.3816 78.5731 50.0002 79.8979C50.0002 79.8979 50.2063 58.5985 11.3404 44.8406Z" fill="#10BC56"/>
<path d="M50.6188 70.2165C50.6188 70.2165 54.8456 51.9745 84.3301 44.0254C84.3301 44.0254 57.526 42.8025 50.6188 70.2165Z" fill="white"/>
<path d="M49.2782 69.9108C49.2782 69.9108 48.2473 46.6751 19.4844 31.8981L20.1029 38.2165C20.206 38.2165 38.7627 44.535 49.2782 69.9108Z" fill="white"/>
</svg>
