<svg width="35" height="40" viewBox="0 0 35 40" fill="none" xmlns="http://www.w3.org/2000/svg">
<path d="M27.4208 21.1569C27.0302 21.1569 26.6396 21.1569 26.3271 21.2351V18.6549C26.3271 17.7167 25.624 17.013 24.6866 17.013H1.64056C0.703098 17.013 0 17.7167 0 18.6549V26.8646C0 34.136 5.85915 40 13.1245 40C17.1868 40 20.7805 38.1235 23.2022 35.2306C24.4522 36.0125 25.8584 36.4816 27.3427 36.4816C31.5613 36.4816 34.9987 33.0414 34.9987 28.8193C35.0768 24.5972 31.7175 21.1569 27.4208 21.1569ZM13.1245 36.7943C7.65596 36.7943 3.28112 32.3377 3.28112 26.9428V20.3751H23.046V26.9428C22.9679 32.3377 18.593 36.7943 13.1245 36.7943ZM27.4208 33.2759C26.5615 33.2759 25.7021 33.0414 24.999 32.5722C25.7803 30.8521 26.249 28.9756 26.249 26.9428V24.5972C26.6396 24.519 26.9521 24.4408 27.3427 24.4408C29.7645 24.4408 31.7175 26.3955 31.7175 28.8193C31.7957 31.3212 29.9207 33.2759 27.4208 33.2759ZM11.8745 9.97618C11.3277 10.6799 11.4839 11.6963 12.187 12.2436C12.4995 12.4782 12.812 12.5563 13.1245 12.5563C13.5932 12.5563 14.1401 12.3218 14.4526 11.9309C16.64 8.95975 15.3119 6.69232 14.4526 5.36314C13.6714 4.11215 13.437 3.72121 14.3745 2.6266C14.9213 1.92291 14.8432 0.906481 14.1401 0.359172C13.437 -0.188137 12.4214 -0.109951 11.8745 0.593733C9.53089 3.56484 10.859 5.75408 11.7183 7.16144C12.4214 8.25606 12.7339 8.72519 11.8745 9.97618Z" fill="#10BC56"/>
</svg>
