<svg width="40" height="40" viewBox="0 0 40 40" fill="none" xmlns="http://www.w3.org/2000/svg">
<path d="M25.031 0.000495516C24.4666 -0.0170929 23.9995 0.435792 23.9997 1.00048V24.1486L25.9997 23.1486V5.23481L37.3824 28.0001H31.9996V30.0001H38.9995C39.5369 30.0005 39.9785 29.5761 39.9995 29.0392C40.0056 28.8715 39.9693 28.7049 39.8941 28.5548L25.8942 0.555176C25.7305 0.2255 25.3989 0.0124354 25.031 0.000495516ZM19.9998 10.0004C12.2797 10.0004 5.99995 16.2802 5.99995 24.0002C5.99913 24.0236 5.99913 24.0471 5.99995 24.0705V26.0002L2 22.0002V25.0002L6.99994 30.0001L11.9999 25.0002V22.0002L7.99993 26.0002V24.0002C7.99993 17.361 13.3606 12.0003 19.9998 12.0003C20.1323 12.0022 20.2639 11.9777 20.3868 11.9283C20.5098 11.8789 20.6217 11.8056 20.7161 11.7125C20.8104 11.6195 20.8854 11.5086 20.9365 11.3863C20.9877 11.2641 21.014 11.1329 21.014 11.0004C21.014 10.8678 20.9877 10.7366 20.9365 10.6144C20.8854 10.4921 20.8104 10.3813 20.7161 10.2882C20.6217 10.1952 20.5098 10.1218 20.3868 10.0724C20.2639 10.023 20.1323 9.9985 19.9998 10.0004ZM29.0622 24.0041C28.8956 23.9937 28.7205 24.0231 28.5544 24.1057L0.55471 38.1055C0.217678 38.2731 0.00322919 38.6158 2.92348e-05 38.9922C-0.00417072 39.5475 0.444698 40 1.00002 40H28.9997C29.5519 39.9999 29.9996 39.5523 29.9997 39V25.0002C29.9991 24.4437 29.5619 24.0353 29.0622 24.0041ZM27.9997 26.6174V38H5.23434L27.9997 26.6174Z" fill="#10BC56"/>
</svg>
