<svg width="40" height="40" viewBox="0 0 40 40" fill="none" xmlns="http://www.w3.org/2000/svg">
<path d="M34.1422 5.85781C30.3646 2.08031 25.3422 0 20 0C14.6578 0 9.63539 2.08031 5.85781 5.85781C2.08031 9.63539 0 14.6577 0 20C0 25.3423 2.08031 30.3646 5.85781 34.1422C9.63539 37.9197 14.6578 40 20 40C25.3422 40 30.3646 37.9197 34.1422 34.1422C37.9197 30.3646 40 25.3423 40 20C40 14.6577 37.9197 9.63539 34.1422 5.85781ZM20 37.3913C10.4105 37.3913 2.60867 29.5896 2.60867 20C2.60867 10.4104 10.4105 2.60867 20 2.60867C29.5895 2.60867 37.3913 10.4105 37.3913 20C37.3913 29.5895 29.5895 37.3913 20 37.3913Z" fill="#10BC56"/>
<path d="M26.9108 16.9268C28.4282 16.9268 29.6583 15.6967 29.6583 14.1792C29.6583 12.6618 28.4282 11.4316 26.9108 11.4316C25.3933 11.4316 24.1632 12.6618 24.1632 14.1792C24.1632 15.6967 25.3933 16.9268 26.9108 16.9268Z" fill="#10BC56"/>
<path d="M17.3302 13.0438C15.1626 14.0459 13.0551 14.046 10.8876 13.0438L9.79288 15.4116C11.2249 16.0737 12.6669 16.4047 14.109 16.4047C15.5511 16.4047 16.9931 16.0737 18.4251 15.4116L17.3302 13.0438Z" fill="#10BC56"/>
<path d="M30.2655 23.5806C28.7448 27.9403 24.6195 30.8695 20 30.8695C15.3805 30.8695 11.2551 27.9403 9.73452 23.5806L7.27139 24.4396C9.15686 29.8459 14.2721 33.4781 20 33.4781C25.7279 33.4781 30.8431 29.8459 32.7286 24.4396L30.2655 23.5806Z" fill="#10BC56"/>
</svg>
